{
  "accessors": [
    {
      "bufferView": 2,
      "componentType": 5126,
      "count": 1834,
      "max": [
        1.4068647623062134,
        0.583364725112915,
        0.43769127130508423
      ],
      "min": [
        -1.4068647623062134,
        -0.4723072946071625,
        -3.126365900039673
      ],
      "type": "VEC3"
    },
    {
      "bufferView": 2,
      "byteOffset": 22008,
      "componentType": 5126,
      "count": 1834,
      "max": [
        1.0,
        1.0,
        1.0
      ],
      "min": [
        -1.0,
        -1.0,
        -1.0
      ],
      "type": "VEC3"
    },
    {
      "bufferView": 1,
      "componentType": 5126,
      "count": 1834,
      "max": [
        0.9999999403953552,
        1.0
      ],
      "min": [
        0.0,
        0.009963274002075195
      ],
      "type": "VEC2"
    },
    {
      "bufferView": 1,
      "byteOffset": 14672,
      "componentType": 5126,
      "count": 1834,
      "max": [
        0.9999999403953552,
        1.0
      ],
      "min": [
        0.0,
        0.009963274002075195
      ],
      "type": "VEC2"
    },
    {
      "bufferView": 1,
      "byteOffset": 29344,
      "componentType": 5126,
      "count": 1834,
      "max": [
        0.9999999403953552,
        1.0
      ],
      "min": [
        0.0,
        0.009963274002075195
      ],
      "type": "VEC2"
    },
    {
      "bufferView": 0,
      "componentType": 5125,
      "count": 3363,
      "type": "SCALAR"
    },
    {
      "bufferView": 2,
      "byteOffset": 44016,
      "componentType": 5126,
      "count": 398,
      "max": [
        0.020958639681339264,
        -0.008396650664508343,
        0.020958639681339264
      ],
      "min": [
        -0.020958639681339264,
        -0.016847210004925728,
        -0.020958639681339264
      ],
      "type": "VEC3"
    },
    {
      "bufferView": 2,
      "byteOffset": 48792,
      "componentType": 5126,
      "count": 398,
      "max": [
        1.0,
        0.9640746116638184,
        1.0
      ],
      "min": [
        -1.0,
        -1.0,
        -1.0
      ],
      "type": "VEC3"
    },
    {
      "bufferView": 1,
      "byteOffset": 44016,
      "componentType": 5126,
      "count": 398,
      "max": [
        1.0,
        0.9900000095367432
      ],
      "min": [
        0.0,
        0.0
      ],
      "type": "VEC2"
    },
    {
      "bufferView": 0,
      "byteOffset": 13452,
      "componentType": 5125,
      "count": 1140,
      "type": "SCALAR"
    },
    {
      "bufferView": 2,
      "byteOffset": 53568,
      "componentType": 5126,
      "count": 768,
      "max": [
        1.4068647623062134,
        0.13748018443584442,
        0.43769127130508423
      ],
      "min": [
        -1.4068647623062134,
        -0.028137316927313805,
        -3.126366138458252
      ],
      "type": "VEC3"
    },
    {
      "bufferView": 2,
      "byteOffset": 62784,
      "componentType": 5126,
      "count": 768,
      "max": [
        1.0,
        1.0,
        1.0
      ],
      "min": [
        -1.0,
        -1.0,
        -1.0
      ],
      "type": "VEC3"
    },
    {
      "bufferView": 3,
      "componentType": 5126,
      "count": 768,
      "max": [
        1.0,
        0.8051239848136902,
        0.9095000624656677,
        1.0
      ],
      "min": [
        -0.7101171016693115,
        -0.8051534295082092,
        -1.0,
        -1.0
      ],
      "type": "VEC4"
    },
    {
      "bufferView": 1,
      "byteOffset": 47200,
      "componentType": 5126,
      "count": 768,
      "max": [
        1.0,
        1.0
      ],
      "min": [
        0.0,
        0.0
      ],
      "type": "VEC2"
    },
    {
      "bufferView": 1,
      "byteOffset": 53344,
      "componentType": 5126,
      "count": 768,
      "max": [
        1.0,
        1.0
      ],
      "min": [
        0.0,
        0.0
      ],
      "type": "VEC2"
    },
    {
      "bufferView": 1,
      "byteOffset": 59488,
      "componentType": 5126,
      "count": 768,
      "max": [
        1.0,
        1.0
      ],
      "min": [
        0.0,
        0.0
      ],
      "type": "VEC2"
    },
    {
      "bufferView": 1,
      "byteOffset": 65632,
      "componentType": 5126,
      "count": 768,
      "max": [
        1.0,
        1.0
      ],
      "min": [
        0.0,
        0.0
      ],
      "type": "VEC2"
    },
    {
      "bufferView": 0,
      "byteOffset": 18012,
      "componentType": 5125,
      "count": 1128,
      "type": "SCALAR"
    }
  ],
  "asset": {
    "extras": {
      "author": "oussalmonster (https://sketchfab.com/oussalmonster)",
      "license": "SKETCHFAB Standard (https://sketchfab.com/licenses)",
      "source": "https://sketchfab.com/3d-models/office-desk-262aa6db90f04072a0fac9ba3b79fc0e",
      "title": "Office Desk"
    },
    "generator": "Sketchfab-16.44.0",
    "version": "2.0"
  },
  "bufferViews": [
    {
      "buffer": 0,
      "byteLength": 22524,
      "name": "floatBufferViews",
      "target": 34963
    },
    {
      "buffer": 0,
      "byteLength": 71776,
      "byteOffset": 22524,
      "byteStride": 8,
      "name": "floatBufferViews",
      "target": 34962
    },
    {
      "buffer": 0,
      "byteLength": 72000,
      "byteOffset": 94300,
      "byteStride": 12,
      "name": "floatBufferViews",
      "target": 34962
    },
    {
      "buffer": 0,
      "byteLength": 12288,
      "byteOffset": 166300,
      "byteStride": 16,
      "name": "floatBufferViews",
      "target": 34962
    }
  ],
  "buffers": [
    {
      "byteLength": 178588,
      "uri": "scene.bin"
    }
  ],
  "extensionsUsed": [
    "KHR_materials_specular"
  ],
  "images": [
    {
      "uri": "textures/Body_baseColor.png"
    },
    {
      "uri": "textures/Body_metallicRoughness.png"
    },
    {
      "uri": "textures/Wood_baseColor.png"
    },
    {
      "uri": "textures/Wood_metallicRoughness.png"
    },
    {
      "uri": "textures/Wood_normal.png"
    },
    {
      "uri": "textures/Wood_specularf0.png"
    }
  ],
  "materials": [
    {
      "doubleSided": true,
      "name": "Body",
      "pbrMetallicRoughness": {
        "baseColorTexture": {
          "index": 0
        },
        "metallicFactor": 0.5,
        "metallicRoughnessTexture": {
          "index": 1,
          "texCoord": 1
        }
      }
    },
    {
      "doubleSided": true,
      "name": "Keyhole",
      "pbrMetallicRoughness": {
        "baseColorFactor": [
          0.584405,
          0.584405,
          0.584405,
          1.0
        ],
        "roughnessFactor": 0.15
      }
    },
    {
      "doubleSided": true,
      "extensions": {
        "KHR_materials_specular": {
          "specularColorFactor": [
            1.0,
            1.0,
            1.0
          ],
          "specularFactor": 1.0,
          "specularTexture": {
            "index": 5
          }
        }
      },
      "name": "Wood",
      "normalTexture": {
        "index": 4
      },
      "pbrMetallicRoughness": {
        "baseColorTexture": {
          "index": 2
        },
        "metallicFactor": 0.0,
        "metallicRoughnessTexture": {
          "index": 3
        }
      }
    }
  ],
  "meshes": [
    {
      "name": "Object_0",
      "primitives": [
        {
          "attributes": {
            "NORMAL": 1,
            "POSITION": 0,
            "TEXCOORD_0": 2,
            "TEXCOORD_1": 3,
            "TEXCOORD_2": 4
          },
          "indices": 5,
          "material": 0,
          "mode": 4
        }
      ]
    },
    {
      "name": "Object_1",
      "primitives": [
        {
          "attributes": {
            "NORMAL": 7,
            "POSITION": 6,
            "TEXCOORD_0": 8
          },
          "indices": 9,
          "material": 1,
          "mode": 4
        }
      ]
    },
    {
      "name": "Object_2",
      "primitives": [
        {
          "attributes": {
            "NORMAL": 11,
            "POSITION": 10,
            "TANGENT": 12,
            "TEXCOORD_0": 13,
            "TEXCOORD_1": 14,
            "TEXCOORD_2": 15,
            "TEXCOORD_3": 16
          },
          "indices": 17,
          "material": 2,
          "mode": 4
        }
      ]
    }
  ],
  "nodes": [
    {
      "children": [
        1
      ],
      "matrix": [
        1.0,
        0.0,
        0.0,
        0.0,
        0.0,
        2.220446049250313e-16,
        -1.0,
        0.0,
        0.0,
        1.0,
        2.220446049250313e-16,
        0.0,
        0.0,
        0.0,
        0.0,
        1.0
      ],
      "name": "Sketchfab_model"
    },
    {
      "children": [
        2
      ],
      "name": "root"
    },
    {
      "children": [
        3
      ],
      "matrix": [
        1.0,
        0.0,
        0.0,
        0.0,
        0.0,
        2.220446049250313e-16,
        1.0,
        0.0,
        0.0,
        -1.0,
        2.220446049250313e-16,
        0.0,
        0.0,
        0.0,
        0.0,
        1.0
      ],
      "name": "GLTF_SceneRootNode"
    },
    {
      "children": [
        4,
        5,
        7
      ],
      "matrix": [
        1.0,
        0.0,
        0.0,
        0.0,
        0.0,
        1.0,
        0.0,
        0.0,
        0.0,
        0.0,
        1.0,
        0.0,
        0.1334112286567688,
        0.47217699885368347,
        1.0084723234176636,
        1.0
      ],
      "name": "Body_2"
    },
    {
      "mesh": 0,
      "name": "Object_4"
    },
    {
      "children": [
        6
      ],
      "matrix": [
        1.0,
        0.0,
        0.0,
        0.0,
        0.0,
        0.0,
        1.0,
        0.0,
        0.0,
        -1.0,
        0.0,
        0.0,
        0.33012065291404724,
        0.3466742932796478,
        -0.42849981784820557,
        1.0
      ],
      "name": "KeyHole_0"
    },
    {
      "mesh": 1,
      "name": "Object_6"
    },
    {
      "children": [
        8
      ],
      "matrix": [
        1.0,
        0.0,
        0.0,
        0.0,
        0.0,
        1.0,
        0.0,
        0.0,
        0.0,
        0.0,
        1.0,
        0.0,
        0.0,
        0.45295074582099915,
        0.0,
        1.0
      ],
      "name": "Wood_1"
    },
    {
      "mesh": 2,
      "name": "Object_8"
    }
  ],
  "samplers": [
    {
      "magFilter": 9729,
      "minFilter": 9987,
      "wrapS": 10497,
      "wrapT": 10497
    }
  ],
  "scene": 0,
  "scenes": [
    {
      "name": "Sketchfab_Scene",
      "nodes": [
        0
      ]
    }
  ],
  "textures": [
    {
      "sampler": 0,
      "source": 0
    },
    {
      "sampler": 0,
      "source": 1
    },
    {
      "sampler": 0,
      "source": 2
    },
    {
      "sampler": 0,
      "source": 3
    },
    {
      "sampler": 0,
      "source": 4
    },
    {
      "sampler": 0,
      "source": 5
    }
  ]
}
